<svg width="135" height="200" viewBox="0 0 135 200" fill="none" xmlns="http://www.w3.org/2000/svg">
  <g clip-path="url(#clip0_1579_5641)">
    <path d="M113.945 106.182H93.8295V46.8863C93.8295 32.2202 82.0282 20.3069 67.5001 20.3069C52.9719 20.3069 41.1706 32.2202 41.1706 46.8863V106.182H21.0547V46.8863C21.0547 21.0289 41.8858 0 67.5001 0C93.1143 0 113.945 21.0289 113.945 46.8863V106.182Z" fill="#E4E9F2" />
    <path d="M93.8281 106.182H113.944V71.2997C107.909 66.5614 101.115 62.7256 93.8281 60.0181V106.182Z" fill="#BEC6D4" />
    <path d="M41.1706 106.182V60.0181C33.8842 62.7256 27.0895 66.5614 21.0547 71.2997V106.182H41.1706Z" fill="#BEC6D4" />
    <path d="M67.5 200C104.779 200 135 169.493 135 131.86C135 94.2264 104.779 63.7188 67.5 63.7188C30.2208 63.7188 0 94.2264 0 131.86C0 169.493 30.2208 200 67.5 200Z" fill="#FF8300" />
    <path d="M67.4998 182.401C95.1506 182.401 117.566 159.773 117.566 131.86C117.566 103.946 95.1506 81.3181 67.4998 81.3181C39.849 81.3181 17.4336 103.946 17.4336 131.86C17.4336 159.773 39.849 182.401 67.4998 182.401Z" fill="#FFBB74" />
    <path d="M67.4984 163.448C84.7802 163.448 98.7898 149.306 98.7898 131.86C98.7898 114.414 84.7802 100.272 67.4984 100.272C50.2167 100.272 36.207 114.414 36.207 131.86C36.207 149.306 50.2167 163.448 67.4984 163.448Z" fill="white" />
    <path d="M94.2325 112.455L91.8633 109.883C92.6679 110.785 93.4279 111.733 94.1431 112.726C94.2325 112.545 94.2325 112.455 94.2325 112.455Z" fill="#040200" />
    <path d="M94.1882 112.816C94.2335 112.591 94.2335 112.455 94.2335 112.455C94.2335 112.455 94.1882 112.546 94.0977 112.681C94.1429 112.726 94.1882 112.771 94.1882 112.816Z" fill="#AF6423" />
    <path d="M63.2977 164.757L63.4318 164.667C63.0295 164.621 62.6718 164.576 62.2695 164.486L63.2977 164.757Z" fill="#A35D20" />
    <path d="M56.1025 162.816C51.0958 160.876 46.6703 157.762 43.1836 153.746L56.1025 162.816Z" fill="#A35D20" />
    <path d="M62.2704 164.487L56.1016 162.817C58.0684 163.539 60.1247 164.126 62.2704 164.487Z" fill="#A35D20" />
    <path d="M67.677 99.0527C55.831 99.0527 45.4601 105.416 39.7383 114.982L85.9601 104.694C80.73 101.129 74.427 99.0527 67.677 99.0527Z" fill="#040200" />
    <path d="M91.7305 109.747L91.8663 109.883C91.821 109.838 91.7758 109.793 91.7305 109.747Z" fill="white" />
    <path d="M94.1881 112.817C93.9646 114.351 92.9812 120.488 89.852 124.821C89.4944 125.317 89.405 125.904 89.5838 126.49L91.3719 132.221C91.5507 132.808 91.1484 133.349 90.5226 133.349H87.4381C87.0805 133.349 86.8123 133.62 86.8123 133.981V136.283C86.8123 136.283 86.5441 138.629 84.756 139.08C84.756 139.08 85.65 142.239 82.5209 142.691C82.5209 142.691 81.9845 148.151 79.213 148.692C77.9166 148.963 75.4133 148.602 73.5358 148.286C72.1053 148.015 70.7196 147.609 69.3785 147.068L67.1881 146.165C66.7858 145.985 66.3388 146.165 66.16 146.571L64.953 149.279L65.4894 149.64C66.5623 150.317 67.3669 151.31 67.8139 152.483L69.2891 156.454C70.049 158.575 69.5126 161.012 67.8139 162.546L67.4116 162.907L65.3553 162.636C64.953 163.358 64.3719 163.945 63.6567 164.441L63.3438 164.667C64.7295 164.848 66.16 164.938 67.5904 164.938C85.6053 164.938 100.223 150.181 100.223 131.996C100.312 124.821 98.0325 118.232 94.1881 112.817Z" fill="#FFEEDD" />
    <path d="M39.9641 143.503L36.1644 123.422C35.4492 126.174 35.0469 129.017 35.0469 131.996C35.0469 140.344 38.1313 147.925 43.1826 153.746L39.9641 149.595V143.503Z" fill="#040200" />
    <path d="M58.9615 127.348V127.393C58.9162 127.438 58.9615 127.393 58.9615 127.348C58.9615 127.393 58.9615 127.393 58.9615 127.348Z" fill="white" />
    <path d="M65.1756 153.791L66.159 158.213C66.5167 159.747 63.1193 163.177 62.3594 164.486L65.9355 164.937L67.9024 162.545C69.5564 161.011 70.1375 158.619 69.3776 156.453L67.9024 152.482C67.4554 151.309 66.6508 150.316 65.5779 149.639L65.0415 149.278L64.1028 151.399C64.5945 152.121 64.9521 152.933 65.1756 153.791Z" fill="#CA8961" />
    <path d="M39.9637 139.305L44.2551 134.972L49.1723 138.989L56.727 131.859C56.8611 131.723 56.9952 131.543 57.1293 131.407C57.174 131.362 57.174 131.362 57.2187 131.317C57.3528 131.182 57.4422 131.046 57.5763 130.866L57.621 130.821C57.7104 130.685 57.7998 130.55 57.8892 130.415C57.8892 130.37 57.9339 130.37 57.9339 130.324C58.0233 130.189 58.1127 130.054 58.1574 129.918C58.1574 129.873 58.2021 129.873 58.2021 129.828C58.2468 129.693 58.3362 129.557 58.381 129.467C58.381 129.467 58.3809 129.422 58.4256 129.422C58.4704 129.287 58.5151 129.151 58.6045 129.016C58.6045 128.971 58.6045 128.971 58.6492 128.926C58.6939 128.79 58.7386 128.655 58.7833 128.565C58.828 128.429 58.828 128.339 58.8727 128.204C58.8727 128.158 58.8727 128.158 58.8727 128.113C58.9174 128.023 58.9174 127.888 58.9174 127.797V127.752C58.9174 127.662 58.9621 127.572 58.9621 127.481V127.436V127.391C59.0068 126.85 58.7833 126.308 58.381 125.947L56.727 124.548C53.1508 120.803 56.727 116.561 56.727 116.561C59.4091 113.853 63.4323 115.658 63.4323 115.658L67.0531 118.817C69.2435 120.758 72.0598 121.841 74.9654 121.841C80.1955 121.841 84.1293 120.758 87.0349 119.314C87.3478 119.133 87.7055 118.953 87.9737 118.817C88.4654 118.546 88.9124 118.231 89.3594 117.96C89.5829 117.779 89.8064 117.644 90.0299 117.463C90.7899 116.877 91.4604 116.29 91.9968 115.703C92.2204 115.478 92.4439 115.252 92.6227 115.027C92.8462 114.801 93.025 114.575 93.1591 114.35C93.2932 114.169 93.4273 113.989 93.5167 113.808C93.6061 113.673 93.6955 113.537 93.7849 113.402C93.9637 113.131 94.0531 112.951 94.1425 112.77C93.4273 111.778 92.6674 110.83 91.8627 109.927L91.7286 109.792C89.9852 107.897 88.0631 106.182 85.9174 104.738L39.7402 114.981C38.1757 117.599 36.9687 120.397 36.1641 123.42L39.9637 143.501V139.305Z" fill="#040200" />
    <path d="M93.7845 113.313C93.6951 113.448 93.6057 113.583 93.5163 113.719C93.3822 113.899 93.2927 114.08 93.1586 114.26C92.9798 114.486 92.801 114.712 92.6222 114.937C92.4434 115.163 92.2199 115.388 91.9964 115.614C91.46 116.201 90.7894 116.787 90.0295 117.374C89.806 117.554 89.5825 117.69 89.359 117.87C88.9567 118.141 88.4649 118.457 87.9732 118.728C87.6603 118.908 87.3474 119.089 87.0345 119.224C84.1288 120.668 80.2398 121.751 74.9649 121.751C72.0593 121.751 69.2431 120.668 67.0527 118.728L63.4318 115.569C63.4318 115.569 59.4086 113.764 56.7265 116.471C56.7265 116.471 53.1504 120.758 56.7265 124.459L58.3805 125.858C58.7828 126.219 59.0063 126.76 58.9616 127.302C58.9616 127.302 58.9616 127.302 58.9616 127.347C58.9616 127.347 58.9616 127.347 58.9616 127.392V127.437C58.9616 127.527 58.9616 127.618 58.9169 127.708V127.753C58.9169 127.843 58.8722 127.979 58.8722 128.069C58.8722 128.114 58.8722 128.114 58.8722 128.159C58.8275 128.295 58.8275 128.385 58.7828 128.52C58.7381 128.656 58.6934 128.746 58.6487 128.881C58.6487 128.926 58.6487 128.926 58.604 128.971C58.5593 129.107 58.5146 129.242 58.4252 129.378C58.4252 129.378 58.4252 129.423 58.3805 129.423C58.3358 129.558 58.2464 129.648 58.2017 129.784C58.2017 129.829 58.157 129.829 58.157 129.874C58.0676 130.009 58.0229 130.145 57.9335 130.28C57.9335 130.325 57.8888 130.325 57.8888 130.37C57.7994 130.506 57.71 130.641 57.6206 130.776L57.5759 130.822C57.4864 130.957 57.3523 131.092 57.2182 131.273C57.1735 131.318 57.1735 131.318 57.1288 131.363C56.9947 131.499 56.8606 131.679 56.7265 131.814L49.1719 138.989L63.1189 150.452C63.4765 150.722 63.7447 151.038 64.0129 151.399L64.9517 149.278L66.1586 146.571C66.3374 146.165 66.7845 145.984 67.1868 146.165L69.3772 147.067C70.7182 147.609 72.104 148.015 73.5345 148.286C75.4119 148.601 77.9153 148.962 79.2116 148.692C81.9831 148.15 82.5196 142.69 82.5196 142.69L79.7033 137.591L86.811 136.282V133.98C86.811 133.619 87.0792 133.349 87.4368 133.349H90.5212C91.1024 133.349 91.5494 132.762 91.3706 132.221L89.5825 126.489C89.4037 125.903 89.4931 125.316 89.8507 124.82C92.9351 120.488 93.9633 114.35 94.1868 112.816C94.1421 112.771 94.1421 112.726 94.0974 112.726C94.0527 112.861 93.9186 113.042 93.7845 113.313ZM60.3027 125.677C59.6768 125.677 59.1851 125.181 59.1851 124.549C59.1851 123.917 59.6768 123.421 60.3027 123.421C60.9285 123.421 61.4202 123.917 61.4202 124.549C61.4202 125.181 60.9285 125.677 60.3027 125.677Z" fill="#F2B792" />
    <path d="M93.1133 114.26C93.2474 114.08 93.3815 113.899 93.4709 113.719C93.3815 113.899 93.2474 114.08 93.1133 114.26Z" fill="white" />
    <path d="M91.9531 115.614C92.1766 115.389 92.4001 115.163 92.5789 114.937C92.4001 115.163 92.1766 115.389 91.9531 115.614Z" fill="white" />
    <path d="M82.6092 142.689C85.7383 142.238 84.8443 139.079 84.8443 139.079C86.6324 138.628 86.9006 136.281 86.9006 136.281L79.793 137.59L82.6092 142.689Z" fill="#CA8961" />
    <path d="M65.4005 162.635C66.1604 161.326 66.4734 159.792 66.1157 158.258L65.1323 153.835C64.9535 152.978 64.5512 152.121 64.0148 151.444C63.7465 151.083 63.4336 150.767 63.1207 150.496L49.1737 138.989L44.2565 134.973L36.8359 141.922L38.177 145.983L39.9651 149.593L43.1836 153.745C46.6704 157.761 51.0959 160.875 56.1025 162.815L62.2714 164.485C62.6737 164.53 63.0313 164.621 63.4336 164.666L63.7465 164.44C64.4171 163.944 64.9982 163.312 65.4005 162.635Z" fill="#F2B792" />
    <path d="M60.3051 125.678C60.9223 125.678 61.4226 125.173 61.4226 124.55C61.4226 123.927 60.9223 123.422 60.3051 123.422C59.6878 123.422 59.1875 123.927 59.1875 124.55C59.1875 125.173 59.6878 125.678 60.3051 125.678Z" fill="#CA8961" />
  </g>
  <defs>
    <clipPath id="clip0_1579_5641">
      <rect width="135" height="200" fill="white" />
    </clipPath>
  </defs>
</svg>
  